#!OML:ASF I:\Actors\actors\Patient Classification 1\Patient 1\Session 1\Subject1.ASF
:FULLY-SPECIFIED
:DEGREES
1202
root -0.118202 17.7719 8.76482 21.9919 3.0755 -8.8583
lowerback 11.1835 -0.959344 -4.14883
upperback -7.2707 -2.09913 -0.428875
thorax -14.2586 -0.60397 2.34461
lowerneck -18.7267 0.166127 1.88186
upperneck 18.0847 -2.23455 8.75354
head 8.88172 0.0435099 2.39059
rclavicle -7.55382e-015 -7.95139e-015
rhumerus -21.6893 42.8339 -85.1228
rradius 117.29
rwrist 0.776389
rhand 45.0286 -60.8858
rfingers 7.12502
rthumb 66.4087 -65.5279
lclavicle -7.55382e-015 -7.95139e-015
lhumerus 59.7399 6.05968 81.5126
lradius 100.023
lwrist 14.7539
lhand 57.9497 20.4163
lfingers 7.12502
lthumb 74.0312 -4.97576
rfemur -16.0054 31.6484 17.4848
rtibia -0.864215
rfoot -15.4931 -35.0558
rtoes 9.29847
lfemur 342.303 -41.4142 365.504
ltibia -1.33171
lfoot -23.0675 53.8647
ltoes 14.5696
1203
root -0.104932 17.7782 8.76778 22.3297 4.54652 -9.63886
lowerback 10.7826 -1.59329 -4.04061
upperback -7.17208 -2.87128 -0.0526715
thorax -13.817 -0.968228 2.85686
lowerneck -19.1442 0.684002 2.34684
upperneck 18.05 -1.69085 8.84022
head 8.92505 0.34934 2.41914
rclavicle -3.1408e-014 2.22639e-014
rhumerus -21.7729 41.457 -84.9127
rradius 120.466
rwrist 0.823636
rhand 44.8085 -60.8544
rfingers 7.12502
rthumb 66.2405 -65.8206
lclavicle -3.1408e-014 2.22639e-014
lhumerus 61.8755 4.25571 81.0984
lradius 88.0255
lwrist 11.0792
lhand 57.2646 23.2525
lfingers 7.12502
lthumb 73.7888 0.0821266
rfemur -16.0243 31.7155 18.4715
rtibia -1.26045
rfoot -16.2241 -36.1778
rtoes 10.2236
lfemur 341.01 -40.2894 367.135
ltibia -1.04143
lfoot -20.0303 52.6364
ltoes 12.1286
1204
root -0.0893645 17.7783 8.76004 22.3765 6.13485 -10.1061
lowerback 10.6656 -2.13486 -4.16293
upperback -6.92333 -3.57124 0.288097
thorax -13.3666 -1.28492 3.43791
lowerneck -19.6276 1.03197 2.58986
upperneck 17.9292 -1.32496 8.96026
head 8.95899 0.558173 2.47314
rclavicle -1.94809e-014 -1.59028e-014
rhumerus -21.0096 39.984 -83.606
rradius 123.747
rwrist 1.00123
rhand 44.6745 -60.8334
rfingers 7.12502
rthumb 66.1378 -65.9943
lclavicle -1.94809e-014 -1.59028e-014
lhumerus 63.662 2.37965 78.5332
lradius 74.0855
lwrist 3.6854
lhand 56.4847 19.4856
lfingers 7.12502
lthumb 73.4833 -1.24048
rfemur -15.835 31.7283 19.1852
rtibia -1.52914
rfoot -17.1644 -37.3582
rtoes 11.1022
lfemur 339.878 -39.6699 368.343
ltibia -0.707962
lfoot -17.5342 51.3893
ltoes 9.91313
1205
root -0.06602 17.7725 8.75343 22.1738 7.80686 -10.3365
lowerback 10.8987 -2.6294 -4.29047
upperback -6.69365 -4.23535 0.555306
thorax -13.1546 -1.58203 3.94769
lowerneck -19.9812 1.24498 2.8561
upperneck 17.8755 -1.11321 8.89828
head 8.99611 0.675655 2.44056
rclavicle -3.37934e-014 -3.65764e-014
rhumerus -19.9091 38.4441 -81.8181
rradius 127.208
rwrist 1.30511
rhand 45.0982 -61.9007
rfingers 7.12502
rthumb 66.4617 -66.4393
lclavicle -3.37934e-014 -3.65764e-014
lhumerus 64.5179 0.189894 73.2217
lradius 61.6797
lwrist -2.48611
lhand 58.5478 14.7353
lfingers 7.12502
lthumb 74.2221 -12.6501
rfemur -15.1574 30.8051 20.0212
rtibia -1.90534
rfoot -18.0194 -37.6281
rtoes 12.154
lfemur 339.025 -39.4886 369.129
ltibia -0.465294
lfoot -14.9944 50.2022
ltoes 7.21441
1206
root -0.0295136 17.7624 8.75476 21.9304 9.5401 -10.5045
lowerback 11.1433 -3.07192 -4.10259
upperback -6.50444 -4.78076 0.793281
thorax -13.0249 -1.85056 4.22644
lowerneck -19.8468 1.39253 3.20838
upperneck 17.4104 -0.850024 8.37516
head 8.79612 0.745082 2.22524
rclavicle -1.55052e-014 -2.06736e-014
rhumerus -18.2571 36.8445 -79.5111
rradius 131.046
rwrist 1.61344
rhand 43.1623 -60.9629
rfingers 7.12502
rthumb 64.959 -68.208
lclavicle -1.55052e-014 -2.06736e-014
lhumerus 62.1034 -2.60653 63.6004
lradius 58.4837
lwrist -5.57303
lhand 62.8479 9.37049
lfingers 7.12502
lthumb 74.9685 -33.443
rfemur -14.2625 29.7907 20.8331
rtibia -2.47292
rfoot -19.1211 -37.7314
rtoes 14.0785
lfemur 338.237 -39.3006 369.748
ltibia -0.274099
lfoot -12.3831 48.8089
ltoes 4.23298
1207
root 0.015907 17.7522 8.76323 21.7794 11.1793 -10.6928
lowerback 11.1921 -3.31652 -3.5844
upperback -6.33179 -4.99054 1.04747
thorax -12.8502 -1.9912 4.25459
lowerneck -19.5018 1.37596 3.28415
upperneck 16.5999 -0.634165 7.56991
head 8.44051 0.727725 1.94467
rclavicle -3.69739e-014 -1.27222e-014
rhumerus -15.7403 34.9513 -76.2638
rradius 135.329
rwrist 1.76876
rhand 42.0508 -61.0572
rfingers 7.12502
rthumb 64.0719 -69.7074
lclavicle -3.69739e-014 -1.27222e-014
lhumerus 58.3108 -6.43683 56.5912
lradius 62.0185
lwrist -5.10829
lhand 68.0299 3.13481
lfingers 7.12502
lthumb 74.3081 -58.4884
rfemur -13.4481 28.8797 21.5856
rtibia -3.06452
rfoot -20.4464 -37.7429
rtoes 16.705
lfemur 337.398 -38.9324 370.348
ltibia -0.0377449
lfoot -10.7104 47.1992
ltoes 2.48502
1208
root 0.0710632 17.7413 8.76733 21.9404 12.6686 -10.8302
lowerback 11.0901 -3.32692 -2.8592
upperback -6.32424 -4.84811 1.30368
thorax -12.8249 -1.97471 4.0938
lowerneck -19.1214 1.1556 2.82753
upperneck 15.6525 -0.610164 7.07427
head 8.04413 0.618617 1.83326
rclavicle -6.12257e-014 1.74931e-014
rhumerus -12.9516 32.1177 -72.4752
rradius 139.871
rwrist 1.52253
rhand 40.3858 -61.0829
rfingers 7.12502
rthumb 62.7142 -71.6582
lclavicle -6.12257e-014 1.74931e-014
lhumerus 55.4073 -10.7154 52.9573
lradius 67.4606
lwrist 1.81095
lhand 69.6001 9.879
lfingers 7.12502
lthumb 73.7907 -56.934
rfemur -13.2325 28.0459 21.9731
rtibia -3.38749
rfoot -21.8637 -37.7228
rtoes 19.2069
lfemur 336.197 -37.9522 370.919
ltibia 0.340532
lfoot -9.27075 45.2053
ltoes 0.798134
1209
root 0.135185 17.7289 8.76189 22.3158 14.0556 -10.7406
lowerback 11.0383 -3.27359 -2.04611
upperback -6.45455 -4.63824 1.3153
thorax -13.0232 -1.93759 3.61368
lowerneck -18.797 0.886125 2.3334
upperneck 14.8145 -0.763027 7.07399
head 7.70973 0.483777 1.8785
rclavicle 2.70347e-014 1.11319e-014
rhumerus -9.14733 28.4163 -68.4511
rradius 143.902
rwrist 1.10456
rhand 38.7399 -61.1381
rfingers 7.12502
rthumb 61.3426 -73.4272
lclavicle 2.70347e-014 1.11319e-014
lhumerus 51.1538 -14.6399 53.8725
lradius 74.3173
lwrist 8.06935
lhand 69.0897 18.1226
lfingers 7.12502
lthumb 73.9735 -47.0413
rfemur -13.4371 27.1938 21.9026
rtibia -3.47952
rfoot -23.2323 -37.7313
rtoes 21.2098
lfemur 334.784 -36.4154 371.105
ltibia 0.864552
lfoot -7.6501 42.716
ltoes -1.63573
1210
root 0.194629 17.7222 8.75933 22.4091 15.3157 -10.3083
lowerback 11.3683 -3.27661 -1.63995
upperback -6.5008 -4.60721 1.07787
thorax -13.3355 -1.96014 3.14901
lowerneck -18.3452 0.776821 2.44716
upperneck 14.0202 -0.844654 6.98026
head 7.37065 0.408822 1.80381
rclavicle -1.51076e-014 -3.33958e-014
rhumerus -4.27547 24.0292 -64.7591
rradius 147.074
rwrist 0.740329
rhand 37.9906 -61.3655
rfingers 7.12502
rthumb 60.7096 -74.3787
lclavicle -1.51076e-014 -3.33958e-014
lhumerus 46.1229 -17.7509 55.9134
lradius 80.8102
lwrist 10.2156
lhand 70.5006 16.9608
lfingers 7.12502
lthumb 73.4355 -52.6669
rfemur -13.1366 26.3377 21.6971
rtibia -3.62425
rfoot -24.6186 -37.7288
rtoes 23.2
lfemur 334.023 -35.202 370.473
ltibia 1.25924
lfoot -6.36786 40.2235
ltoes -3.92233
1211
root 0.245669 17.7196 8.75797 22.2745 16.4033 -9.64656
lowerback 12.017 -3.25939 -1.7072
upperback -6.43862 -4.64231 0.772095
thorax -13.6845 -1.97431 2.90431
lowerneck -17.9588 0.768524 2.90255
upperneck 13.2714 -0.829202 6.576
head 7.05491 0.371418 1.5863
rclavicle 4.53229e-014 3.97569e-014
rhumerus 1.56289 18.5365 -61.5985
rradius 148.666
rwrist -0.873007
rhand 38.259 -61.647
rfingers 7.12502
rthumb 60.9369 -74.4046
lclavicle 4.53229e-014 3.97569e-014
lhumerus 40.4905 -20.2938 58.4407
lradius 86.9557
lwrist 11.9552
lhand 70.7357 17.1105
lfingers 7.12502
lthumb 73.3362 -53.2313
rfemur -12.4333 25.5636 21.389
rtibia -3.84788
rfoot -25.8891 -37.7487
rtoes 25.2165
lfemur 333.785 -34.7089 369.411
ltibia 1.46153
lfoot -5.33669 38.2924
ltoes -5.97387
1212
root 0.292856 17.7162 8.7488 22.2578 17.3189 -9.10807
lowerback 12.5904 -3.07324 -1.64962
upperback -6.34213 -4.42804 0.442221
thorax -13.9713 -1.88773 2.49516
lowerneck -17.6329 0.898764 3.51693
upperneck 12.3231 -0.565681 5.61675
head 6.67732 0.405579 1.19148
rclavicle -6.75868e-015 1.59028e-015
rhumerus 7.49486 12.7789 -59.2137
rradius 148.498
rwrist -1.20517
rhand 38.2273 -60.5783
rfingers 7.12502
rthumb 60.9101 -73.3663
lclavicle -6.75868e-015 1.59028e-015
lhumerus 34.97 -22.4095 61.2886
lradius 92.7244
lwrist 13.0572
lhand 72.9663 16.9883
lfingers 7.12502
lthumb 72.2698 -59.6907
rfemur -12.0516 24.9815 21.0082
rtibia -3.95066
rfoot -26.8863 -37.8085
rtoes 26.8265
lfemur 333.417 -34.6974 368.742
ltibia 1.55893
lfoot -4.48289 37.167
ltoes -7.61885
1213
root 0.337544 17.7146 8.73474 22.3952 18.0466 -8.8873
lowerback 12.9176 -2.69415 -1.23808
upperback -6.2612 -3.87447 0.160154
thorax -14.1536 -1.67867 1.83702
lowerneck -17.6713 0.258858 3.47247
upperneck 11.2694 -1.26702 5.02842
head 6.34402 -0.0191928 0.927043
rclavicle -1.94809e-014 1.43125e-014
rhumerus 13.5685 7.28117 -57.5221
rradius 147.662
rwrist -1.47606
rhand 36.9008 -60.8577
rfingers 7.12502
rthumb 59.7803 -74.8666
lclavicle -1.94809e-014 1.43125e-014
lhumerus 30.607 -24.3806 63.3879
lradius 97.3525
lwrist 14.3183
lhand 74.5859 19.0371
lfingers 7.12502
lthumb 71.3698 -61.7447
rfemur -12.1415 24.6853 20.7064
rtibia -3.85438
rfoot -27.6781 -37.8995
rtoes 27.796
lfemur 332.867 -35.0866 368.766
ltibia 1.47959
lfoot -3.92101 36.9943
ltoes -8.38066
1214
root 0.380725 17.7158 8.71964 22.6526 18.6086 -8.94248
lowerback 13.07 -2.18707 -0.532464
upperback -6.25665 -3.08569 -0.105535
thorax -14.323 -1.39014 0.958801
lowerneck -17.3095 -0.597975 3.32015
upperneck 9.80177 -2.19489 4.42115
head 5.81259 -0.576427 0.658231
rclavicle -7.55382e-015 -4.29375e-014
rhumerus 19.4838 2.52275 -56.5057
rradius 145.386
rwrist 0.550382
rhand 36.1959 -58.4415
rfingers 7.12502
rthumb 59.174 -73.0607
lclavicle -7.55382e-015 -4.29375e-014
lhumerus 27.5309 -25.6037 65.0946
lradius 100.58
lwrist 13.3419
lhand 72.9737 17.7307
lfingers 7.12502
lthumb 72.2659 -58.968
rfemur -12.5974 24.6441 20.4961
rtibia -3.61743
rfoot -28.3504 -38.0626
rtoes 28.3883
lfemur 332.195 -35.8137 369.398
ltibia 1.20483
lfoot -3.45067 37.6269
ltoes -8.6721
